<svg t="1758187066994" class="icon" viewBox="0 0 1024 1024" version="1.1" xmlns="http://www.w3.org/2000/svg" p-id="1359" width="200" height="200"><path d="M299.248941 495.314824a135.529412 135.529412 0 1 1 271.058824 0 135.529412 135.529412 0 0 1-271.058824 0z m135.529412-75.294118a75.294118 75.294118 0 1 0 0 150.588235 75.294118 75.294118 0 0 0 0-150.588235z" fill="#000000" p-id="1360"></path><path d="M919.491765 495.194353a30.117647 30.117647 0 0 1-30.057412 30.177882l-336.896-0.060235a30.117647 30.117647 0 1 1-0.060235-60.235294l336.896 0.060235a30.117647 30.117647 0 0 1 30.117647 30.117647zM346.473412 495.495529a30.117647 30.117647 0 0 1-30.117647 30.117647H139.384471a30.117647 30.117647 0 0 1 0-60.235294h177.031529a30.117647 30.117647 0 0 1 30.117647 30.117647z" fill="#000000" p-id="1361"></path><path d="M600.545882 639.277176a30.117647 30.117647 0 0 1-30.117647-30.117647L570.187294 381.289412a30.117647 30.117647 0 1 1 60.235294 0l0.240941 227.870117a30.117647 30.117647 0 0 1-30.117647 30.117647z" fill="#000000" p-id="1362"></path><path d="M699.873882 495.254588l204.077177 123.361883a30.117647 30.117647 0 0 1-31.201883 51.501176l-229.616941-138.782118a42.164706 42.164706 0 0 1 0-72.161882l229.616941-138.782118a30.117647 30.117647 0 1 1 31.201883 51.561412l-204.077177 123.301647z" fill="#000000" p-id="1363"></path></svg>