<svg t="1758187094993" class="icon" viewBox="0 0 1024 1024" version="1.1" xmlns="http://www.w3.org/2000/svg" p-id="1507" width="200" height="200"><path d="M104.448 495.194353a30.117647 30.117647 0 0 0 30.117647 30.177882l421.406118 0.240941a30.117647 30.117647 0 0 0 0.12047-60.235294l-421.466353-0.240941a30.117647 30.117647 0 0 0-30.117647 30.117647z" fill="#000000" p-id="1508"></path><path d="M408.455529 495.194353a30.117647 30.117647 0 0 0 30.117647 30.117647l446.102589 0.301176a30.117647 30.117647 0 1 0 0-60.235294l-446.042353-0.240941a30.117647 30.117647 0 0 0-30.117647 30.117647z" fill="#000000" p-id="1509"></path><path d="M423.213176 639.216941a30.117647 30.117647 0 0 0 30.177883-30.117647l0.240941-227.870118a30.117647 30.117647 0 1 0-60.235294-0.060235l-0.240941 227.870118a30.117647 30.117647 0 0 0 30.117647 30.117647z" fill="#000000" p-id="1510"></path><path d="M330.089412 495.254588L125.952 618.616471a30.117647 30.117647 0 1 0 31.141647 51.501176L386.710588 531.335529a42.164706 42.164706 0 0 0 0-72.161882L157.214118 320.451765a30.117647 30.117647 0 0 0-31.141647 51.561411l204.016941 123.301648z" fill="#000000" p-id="1511"></path></svg>