<svg t="1758187032694" class="icon" viewBox="0 0 1024 1024" version="1.1" xmlns="http://www.w3.org/2000/svg" p-id="1212" width="200" height="200"><path d="M919.552 495.194353a30.117647 30.117647 0 0 1-30.117647 30.177882l-421.406118 0.240941a30.117647 30.117647 0 0 1-0.12047-60.235294l421.466353-0.240941a30.117647 30.117647 0 0 1 30.117647 30.117647z" fill="#000000" p-id="1213"></path><path d="M540.190118 495.194353a30.117647 30.117647 0 0 1-30.117647 30.117647l-370.748236 0.361412a30.117647 30.117647 0 1 1-0.060235-60.235294l370.748235-0.301177a30.117647 30.117647 0 0 1 30.117647 30.117647z" fill="#000000" p-id="1214"></path><path d="M391.649882 639.216941a30.117647 30.117647 0 0 1-30.117647-30.117647L361.291294 381.289412a30.117647 30.117647 0 1 1 60.235294-0.060236l0.240941 227.870118a30.117647 30.117647 0 0 1-30.117647 30.117647z" fill="#000000" p-id="1215"></path></svg>